<?xml version="1.0" encoding="UTF-8"?>
<svg id="Layer_1" xmlns="http://www.w3.org/2000/svg" version="1.1" viewBox="0 0 871.5 395.96">
  <!-- Generator: Adobe Illustrator 29.0.1, SVG Export Plug-In . SVG Version: 2.1.0 Build 192)  -->
  <defs>
    <style>
      .st0 {
        fill: #ffb587;
      }

      .st1 {
        fill: #ffb78f;
      }

      .st2 {
        fill: #b3c0c6;
      }

      .st3 {
        fill: #443438;
      }

      .st4 {
        fill: #fff;
      }

      .st5 {
        fill: #c16a4c;
      }

      .st6 {
        fill: #fca377;
      }

      .st7 {
        fill: #ffe6cf;
      }

      .st8 {
        opacity: .8;
      }

      .st9 {
        fill: #7178d5;
      }

      .st10 {
        fill: #e8dfde;
      }

      .st11 {
        fill: #f75c5c;
      }

      .st12 {
        fill: #ffb486;
      }

      .st13 {
        fill: #c5d1d8;
      }

      .st14 {
        fill: #d5dce0;
      }

      .st15 {
        fill: #ffba8c;
      }

      .st16 {
        fill: #47393d;
      }

      .st17 {
        opacity: .44;
      }

      .st18 {
        fill: #e89477;
      }

      .st19 {
        fill: #5555c9;
      }
    </style>
  </defs>
  <path class="st7" d="M862.86,246.75c0,.29-.03.58-.05.87-.38,7.51-1.15,14.9-2.23,22.11-5.36,36.25-18.36,68.21-29.56,90.49-9.14,18.17-17.09,29.92-18.74,32.31-.22.31-.33.45-.33.45H76.56s-15.95-14.11-32.92-31.7c-2.32-4.61-4.71-9.37-7.09-13.96-.57-1.11-1.15-2.21-1.72-3.3-5.7-10.9-11.06-20.5-14.33-24.83-9.83-12.99-14.07-30.92-6.02-44.95,0,0,0,0,0-.02,6.11-10.64,17.23-16.54,29.19-21.85,8.84-3.92,18.15-7.52,26.21-12.46.27-.18.54-.34.8-.51,1.36-.85,2.7-1.76,3.99-2.72.35-.26.69-.53,1.04-.79,19.76-15.43,25.05-41.85,24.07-65.87-.96-24.02-6.85-48-4.02-71.89,4.31-36.26,30.08-69.67,65.6-85,35.5-15.33,79.51-12.04,111.96,8.36,27.5,17.29,48.24,46.26,80.73,52.51,25.57,4.93,51.52-5.93,73.8-18.64,22.26-12.7,43.9-27.86,69.45-32.9s56.85,3.99,65.7,26.89c7.3,18.87-2.17,41.98,9.56,58.79,7.44,10.66,21.82,17.48,35.38,16.1,78.85-8.1,142.33-11.44,193.56,18.82,44.66,26.39,63.72,54.45,61.35,103.69Z"/>
  <g>
    <path class="st9" d="M126.36,392.99h-57.51s-14.1-14.12-29.09-31.7c-5.16-6.05-10.43-12.5-15.26-18.93-4.4-5.85-8.46-11.69-11.74-17.18-3.18-5.3-5.65-10.29-7.04-14.64-2.23-6.95-3.86-14.35-2.46-21.52,1.21-6.15,5.07-12.54,10.72-14.77.92-.38,1.9-.63,2.92-.75,2.09-.25,4.35.12,6.69.93,6.29,2.2,13.13,7.6,18.49,12.58.55.51,1.09,1.02,1.6,1.52,4.67,4.49,7.91,8.3,8.15,8.59-.07-.14-.13-.27-.2-.41-6.14-12.66-12.22-26.46-12.07-40.2.02-1.38.09-2.75.23-4.13.21-1.97.56-3.94,1.07-5.9,1.71-6.52,5.76-13.35,12.33-14.84,5.02-1.13,9.71,1.02,13.99,5.05.34.31.66.64,1,.99.95.98,1.89,2.05,2.8,3.19.02,0,.02.02.03.04.29.37.57.74.86,1.12,3.34,4.44,6.35,9.82,8.99,15.3.02.03.03.07.05.11,4.26,8.9,7.52,18.03,9.51,23.7.07.21.15.42.23.63.54,1.54.99,2.79,1.31,3.66.15.39.28.71.38.94-.07-.41-.14-.82-.21-1.24-.16-.94-.31-1.89-.46-2.84-.53-3.39-.95-6.81-.97-10.19-.02-3.4.36-6.76,1.41-10,.26-.79.56-1.56.92-2.32h0c.3-.64.63-1.25.99-1.85,3.5-5.82,9.86-10.05,16.39-8.77,10.19,2,13.74,14.53,15.14,24.82,5.78,42.72.8,119.03.8,119.03Z"/>
    <path class="st16" d="M96.52,299.56c-.11-.23-11.03-23.21-2.67-41.74l.71.32c-8.21,18.19,2.55,40.85,2.66,41.07l-.7.34Z"/>
    <path class="st16" d="M24.13,342.64c-.27-.34-27.12-34.35-20.01-56.44l.74.24c-6.98,21.69,19.6,55.37,19.87,55.71l-.61.49Z"/>
    <path class="st16" d="M36.37,350.9c-.16-.18-15.54-18.34-19.25-32.37l.76-.2c3.66,13.86,18.94,31.89,19.09,32.07l-.6.51Z"/>
    <path class="st16" d="M67.5,320.09c-10.23-18.1-24.15-30.93-24.29-31.06l.53-.58c.14.13,14.14,13.03,24.44,31.25l-.68.39Z"/>
    <path class="st16" d="M91.9,285.21c-11.56-32.83-23.96-47.06-24.09-47.2l.59-.52c.13.14,12.63,14.48,24.24,47.46l-.74.26Z"/>
    <path class="st16" d="M75.28,255.76c-4.78-9.79-10.46-15.97-16.45-17.88-4.91-1.57-8.34.26-8.38.28l-.37-.69c.15-.08,3.76-2,8.99-.33,6.28,2,11.97,8.15,16.91,18.28l-.7.34Z"/>
  </g>
  <g>
    <path class="st9" d="M646.97,322.05c-.44,3.97-1.73,8.6-3.59,13.59-2.19,5.89-5.18,12.27-8.49,18.64-.02.03-.04.07-.06.1-1.43,2.74-2.91,5.47-4.43,8.16-6.92,12.31-14.37,23.73-18.9,30.44h-128.63c-11.72-12.8-35.6-42.04-21.14-53.79,5.64-4.58,25.87,5.62,25.87,5.62,0,0-24.64-39.65-17.89-46.86,12.7-13.57,32.75,17.79,33.26,18.6-.32-1.18-12.21-44.81,2.22-47.43,22.87-4.16,30.04,30.44,31.94,32.82,1.7-7.98,1.77-33.27,14.87-36.62,5.83-1.49,11.65,2.67,14.81,7.95.33.55.63,1.1.9,1.67.33.71.6,1.41.83,2.12.95,2.95,1.29,6,1.28,9.08-.03,3.07-.4,6.18-.88,9.25l-.42,2.58c-.06.38-.13.74-.19,1.12.09-.21.21-.5.35-.85.3-.8.7-1.93,1.19-3.33.07-.19.14-.38.2-.57,1.81-5.15,4.75-13.43,8.6-21.5.02-.05.03-.08.05-.1,2.38-4.97,5.1-9.87,8.12-13.89.26-.34.51-.68.78-1.01,0-.02,0-.03.03-.04.83-1.04,1.67-2.01,2.53-2.89.3-.32.6-.61.9-.9,3.87-3.66,8.11-5.61,12.65-4.58,5.94,1.35,9.59,7.55,11.14,13.47.46,1.77.77,3.56.96,5.35.14,1.25.2,2.49.22,3.74.13,12.47-5.36,25-10.91,36.48-.06.13-.12.25-.18.38.04-.04.45-.19,1.15-.41,3.66-1.15,15.29-4.22,23.82-4.36,9.53-.15,13.39,2.8,15.25,6.45.79,1.57,1.22,3.27,1.57,4.91.03.14.05.27.08.4.37,1.8.4,3.89.14,6.21Z"/>
    <path class="st16" d="M630.55,362.66c.23-.32,22.54-32.62,14.89-52.23l-.66.26c7.51,19.26-14.59,51.24-14.81,51.56l.58.41Z"/>
    <path class="st16" d="M616.12,370.52c.14-.16,14.05-16.64,17.4-29.38l-.68-.18c-3.31,12.58-17.12,28.93-17.25,29.1l.54.46Z"/>
    <path class="st16" d="M590.8,329.69c9.25-16.43,21.83-28.07,21.95-28.18l-.48-.52c-.13.12-12.78,11.83-22.09,28.36l.62.35Z"/>
    <path class="st16" d="M583.77,271.32c4.32-8.88,9.46-14.49,14.87-16.22,4.44-1.42,7.54.23,7.57.25l.34-.62c-.14-.07-3.4-1.82-8.12-.3-5.68,1.82-10.82,7.4-15.29,16.59l.64.31Z"/>
  </g>
  <g>
    <g>
      <g>
        <rect class="st4" x="207.84" y="40.76" width="194.06" height="329.09"/>
        <path class="st16" d="M401.9,26.04v14.72h-194.06v-14.72c0-5,4.05-9.05,9.05-9.05h175.95c5,0,9.05,4.05,9.05,9.05Z"/>
        <path class="st16" d="M207.84,369.85h194.06v14.47c0,5-4.05,9.05-9.05,9.05h-175.95c-5,0-9.05-4.05-9.05-9.05v-14.47Z"/>
        <rect class="st16" x="207.84" y="40.76" width="1" height="329.2"/>
      </g>
      <path class="st10" d="M329.32,29.01h-48.9c-.48,0-.87-.39-.87-.87s.39-.87.87-.87h48.9c.48,0,.87.39.87.87s-.39.87-.87.87Z"/>
    </g>
    <g>
      <g>
        <rect class="st2" x="229.87" y="233.3" width="78.19" height="76.75"/>
        <rect class="st14" x="315.59" y="233.3" width="64.29" height="11.94"/>
        <rect class="st14" x="315.59" y="251.46" width="64.29" height="11.94"/>
        <rect class="st14" x="315.59" y="269.27" width="64.29" height="11.94"/>
      </g>
      <rect class="st14" x="229.87" y="321.1" width="150.02" height="16.03"/>
      <rect class="st2" x="229.87" y="344.6" width="150.02" height="6.93"/>
      <rect class="st13" x="229.87" y="191.48" width="150.02" height="16.03"/>
      <rect class="st2" x="229.87" y="214.98" width="150.02" height="6.93"/>
      <rect class="st2" x="229.87" y="100.64" width="78.19" height="76.75"/>
      <rect class="st14" x="315.59" y="100.64" width="64.29" height="11.94"/>
      <rect class="st14" x="315.59" y="118.8" width="64.29" height="11.94"/>
      <rect class="st14" x="315.59" y="136.62" width="64.29" height="11.94"/>
      <rect class="st14" x="229.87" y="58.83" width="150.02" height="16.03"/>
      <rect class="st2" x="229.87" y="82.32" width="150.02" height="6.93"/>
    </g>
  </g>
  <path class="st16" d="M481.79,391.69c-17.61-15.41-24.09-36.45-24.15-36.66l.96-.29c.06.21,6.47,20.98,23.85,36.19l-.66.75Z"/>
  <path class="st7" d="M61.09,211.95c7.51-10.02,9.02-24.22,3.78-35.6-1.48-3.21-3.53-6.28-6.53-8.14-3-1.86-7.09-2.27-10.01-.29-3.13,2.11-4.19,6.21-4.47,9.98s-.07,7.69-1.62,11.14c-4.19,9.33-18.57,10.17-23.04,19.37-2.2,4.54-.43,11.19,4.26,13.81,8.88,4.96,30.12-.23,37.63-10.26Z"/>
  <path class="st7" d="M589.48,98.06c10.01,7.53,24.2,9.07,35.59,3.86,3.21-1.47,6.29-3.52,8.16-6.52,1.87-3,2.28-7.08.32-10.01-2.1-3.14-6.2-4.2-9.96-4.49-3.76-.29-7.69-.09-11.13-1.65-9.32-4.21-10.13-18.59-19.32-23.08-4.53-2.21-11.18-.46-13.82,4.23-4.98,8.86.17,30.12,10.17,37.66Z"/>
  <g>
    <path class="st16" d="M737.73,147.12l-.06-.78c.14-.01,13.79-.94,29.98,4.37,14.95,4.9,35.19,16.28,46.72,42.63l-.72.31c-11.42-26.09-31.45-37.35-46.25-42.2-16.04-5.26-29.54-4.34-29.68-4.33Z"/>
    <path class="st16" d="M786.99,152.13l.36-.7c.29.15,29.43,15.46,41.34,52.44l-.74.24c-11.8-36.67-40.66-51.84-40.95-51.99Z"/>
  </g>
  <g>
    <path class="st16" d="M188.57,31.09c-37.38-2.08-55.48,24.91-64.11,42.89l-.71-.32c8.72-18.18,27.07-45.52,64.94-43.41l-.12.85Z"/>
    <path class="st16" d="M189.85,24.57c-20.17-5.31-38.36,7.98-38.54,8.12l-.42-.68c.18-.14,18.69-13.67,39.23-8.26l-.26.83Z"/>
  </g>
  <g>
    <path class="st16" d="M491.33,17.72c34.18-15.26,60.72,3.51,75.18,17.23l.55-.56c-14.62-13.88-41.51-32.89-76.14-17.43l.41.75Z"/>
    <path class="st16" d="M487.8,12.08c16.95-12.15,38.69-6.21,38.91-6.15l.15-.79c-.22-.06-22.34-6.12-39.6,6.26l.54.68Z"/>
  </g>
  <g>
    <g>
      <polygon class="st12" points="167.29 382.42 164.84 362.67 179.32 362.67 179.96 382.42 167.29 382.42"/>
      <path class="st6" d="M179.68,373.88c-5.47,1.43-13.6-1.17-13.6-1.17l-.57-4.69,14.02,1.18.15,4.68Z"/>
    </g>
    <g>
      <polygon class="st12" points="98.23 382.42 99.57 362.67 114.05 362.67 110.9 382.42 98.23 382.42"/>
      <path class="st6" d="M113.37,366.89l-.99,6.23c-6.68.39-11.43-2.08-13.29-3.27l.41-6.06,13.88,3.1Z"/>
    </g>
    <path class="st19" d="M198.09,370.04s-9.67-121.44-35.78-180.48l-24.27,1.22s2.07,85.51,20.28,179.26c0,0,22.78,5.41,39.77,0Z"/>
    <path class="st19" d="M129.3,370.04s-23.89,3.86-37.52-5.41c0,0,7.26-131.67,29.48-174.85h26.13s-.85,70.98-18.09,180.25Z"/>
    <path class="st16" d="M121.85,127.27c.64-2.3,1.85-5.23,1.85-5.23-.42,2.2-.43,4.64-.39,5.95,5.67,2.6,17.52,5.99,35.92,1.49-.23-1.89-.34-3.68-.34-3.68.33,1.2.79,2.41,1.25,3.46.66-.17,1.32-.34,1.99-.53-.55-2.34-.79-6.4-.79-6.4.64,2.44,1.91,4.93,2.45,5.92,1.12-.34,2.26-.7,3.43-1.1,0,0-3.67-5.6-6.07-20.16-1.98-11.97-8.12-17.63-17.45-17.38-19.19.51-24.31,36.13-24.31,36.13,0,0,.82.65,2.47,1.53Z"/>
    <path class="st5" d="M188.19,169.51s-7.69-34.62-38.27-36.41c-47.07-2.76-61.54,27.86-61.54,27.86l99.81,8.55Z"/>
    <path class="st12" d="M139.46,98.39c5.2-2.97,14.32-3.1,16.41,3.93,1.93,6.49,1.62,26.06-7.07,25.69-9.08-.39-11.94-7.29-12.75-11.51-.29-1.52-1.78-15.14,3.41-18.11Z"/>
    <path class="st12" d="M136.27,116.16s-4.06,1.25-4.81-2.4c-.68-3.29,3.22-4.57,4.48-3.13l.33,5.53Z"/>
    <path class="st12" d="M194.61,186.97c9.66-7.95,24.1-30.04,24.1-30.04,1.01-.68,5.31-3.64,6.82-6.66.67-1.35.33-2.47-.8-2.42.15-1.26-.42-1.75-1.6-1.49-.08-1.19-.7-1.42-1.52-1.21-.36-2.81-6.09,3.11-6.47,4-.25.6-1.02,2.85-1.2,3.53-.25.9-27.69,20.92-27.69,20.92l8.37,13.37Z"/>
    <g>
      <path class="st11" d="M222.74,155.8c1.39-.7,1.96-2.39,1.26-3.79l-10.27-20.52c-.7-1.39-2.39-1.96-3.79-1.26-1.39.7-1.96,2.39-1.26,3.79l10.27,20.52c.7,1.39,2.39,1.96,3.79,1.26Z"/>
      <circle class="st11" cx="202.67" cy="115.7" r="24.71" transform="translate(-21.61 180.21) rotate(-45.77)"/>
      <path class="st4" d="M184.02,125.04c-2.49-4.98-2.9-10.64-1.14-15.92,1.76-5.29,5.47-9.57,10.45-12.06,4.98-2.49,10.63-2.9,15.92-1.14,5.29,1.76,9.57,5.47,12.06,10.45,2.49,4.98,2.9,10.64,1.14,15.92-1.76,5.29-5.47,9.57-10.45,12.06-2.99,1.5-6.17,2.2-9.3,2.2-7.65,0-15.03-4.22-18.68-11.52ZM193.68,97.73c-4.8,2.4-8.38,6.53-10.07,11.62-1.69,5.09-1.31,10.54,1.1,15.34,4.96,9.91,17.06,13.94,26.97,8.98,4.8-2.4,8.38-6.53,10.07-11.62,1.7-5.09,1.31-10.54-1.1-15.34s-6.53-8.38-11.62-10.07c-2.09-.69-4.23-1.04-6.37-1.04-3.08,0-6.14.72-8.98,2.14Z"/>
      <g>
        <polygon class="st4" points="203.79 123.03 207.87 120.99 200.51 100.41 191.73 104.81 203.79 123.03"/>
        <rect class="st4" x="205.98" y="124.7" width="4.55" height="4.33" transform="translate(451.28 147.09) rotate(153.41)"/>
      </g>
    </g>
    <g>
      <g>
        <path class="st12" d="M225.54,148.43c.42.36.43,1,.01,1.36-.74.65-1.74,1.23-2.2,1.07-.81-.29.17-1.46.91-2.33.32-.38.89-.43,1.27-.1h0Z"/>
        <path class="st12" d="M224.13,147.82c.23.36.18.83-.11,1.13-.74.76-2.05,1.75-2.74,1.31-.44-.28.49-1.57,1.3-2.59.39-.5,1.22-.39,1.56.15h0Z"/>
        <path class="st12" d="M222.27,146.28c.41.29.51.85.22,1.26-.61.88-1.65,1.93-2.81,1.86-.99-.07.38-1.89,1.23-3,.3-.39.85-.47,1.25-.19l.1.07Z"/>
        <path class="st12" d="M221.27,144.67c.49.39.53,1.12.09,1.57-.81.81-1.96,1.63-2.64,1.51-.73-.12.25-1.67,1.01-2.83.34-.52,1.06-.64,1.54-.25h0Z"/>
      </g>
      <path class="st12" d="M214.53,151.26c.3-2.99,2.1-6.26,2.83-5.78.73.48-.47,3.12-.06,4.04.54,1.21.99,2.34.02,4.83l-2.79-3.09Z"/>
    </g>
    <path class="st16" d="M96.53,366.76l-.78-.05c.09-1.32,8.93-132.16,31.39-174.68l.69.37c-22.38,42.37-31.22,173.05-31.3,174.37Z"/>
    <path class="st5" d="M115.58,168.7l-8.24,47.11c21.5,6.46,45.76.66,65.59-12.51l-8.22-46.46-15.29-23.28s-7.45,8.51-15.67-.19l-21.4,8.98,3.22,26.36Z"/>
    <path class="st5" d="M106.98,209.72s-14.3-20.95,7.84-35.88l12.68-35.66v-.24c-14.85-.08-30.81,9.01-39.45,21.74-14.45,21.29-13,46.76,11.2,59.88l7.74-9.85Z"/>
    <path class="st5" d="M217.78,162.78l-7.21-9.27-21.07,14.64s-10.86-22.08-19.8-27.79l-5.72,38.64s10.29,15.8,25.49,13.9c14.42-1.8,28.32-30.12,28.32-30.12Z"/>
    <path class="st16" d="M143.02,264.66l-.78-.07c1.26-13.46,2.31-26.63,3.12-39.13l.78.05c-.81,12.51-1.86,25.69-3.12,39.16Z"/>
    <path class="st16" d="M164.11,370.31c-.16-.78-16.27-78.08-20.86-117.03l.78-.09c4.58,38.92,20.68,116.19,20.85,116.97l-.77.16Z"/>
    <rect class="st16" x="168.45" y="156.48" width=".76" height="47.18" transform="translate(-28.73 32.09) rotate(-10.01)"/>
    <path class="st16" d="M132.95,109.9s1.45-.84,2.9.7c0,0,.38-3.07,1.42-5.01l.65,3.42c1.05.17,4.4.71,8.07.79,1.03.02,3.94,0,3.94,0l.66-5.72,1.24,5.61c.85-.07,1.52-.16,2.2-.25l.49-3.37.94,3.17c.91-.15,1.55-.29,1.86-.36.19-2.4.26-8.89-4.02-12.65-4.92-4.31-15.34-1.94-17.75,3.22-2.41,5.16-2.59,10.45-2.59,10.45Z"/>
    <path class="st12" d="M142.68,137.32c4.31,0,6.87-3.76,6.87-3.76l-1.08-12.47-11.86-7.05-2.99,19.32s3.71,3.96,9.06,3.96Z"/>
    <path class="st16" d="M148.4,128.71l.03-.76c-5.4-.23-8.85-4.36-10.8-7.78l-.66.37c2.04,3.59,5.68,7.91,11.42,8.16Z"/>
    <path class="st16" d="M104.53,219.91c-10.43-5.66-17.23-13.96-19.68-24.01-2.79-11.46.17-24.4,8.34-36.44l.65.44c-8.04,11.85-10.97,24.57-8.23,35.81,2.39,9.83,9.06,17.96,19.29,23.51l-.37.69Z"/>
    <g>
      <path class="st16" d="M163.17,392.99h37.67c.05-.45.14-1.82-.15-3.27-.02-.03-36.99.21-36.99.21l-.53,3.06Z"/>
      <path class="st11" d="M163.7,389.93l36.97-.24c-.36-3.83-5.16-5.63-9.64-6.77-.3-.08-.6-.14-.89-.22-.64-.15-1.27-.29-1.87-.42-.31-.07-.61-.14-.9-.2-1.55-.35-2.84-.64-3.58-.99-.67-.32-1.47-.78-2.18-1.2-.24-.14-.46-.29-.67-.42-.67-.42-1.14-.73-1.14-.73-2.42.79-6.06,3.07-14.07-.55l-.24,1.39-.14.79-1.66,9.57Z"/>
      <g>
        <path class="st16" d="M190.14,382.7c.56,1.29.62,2.68.62,2.7l.76-.03c0-.08-.05-1.21-.48-2.45-.3-.08-.6-.14-.89-.22Z"/>
        <path class="st16" d="M187.37,382.08c.62,1.34.68,2.82.68,2.84l.76-.02c0-.08-.05-1.32-.54-2.62-.31-.07-.61-.14-.9-.2Z"/>
      </g>
      <path class="st16" d="M165.36,380.36c3.3,1.64,6.12,2.21,8.45,2.21,4.32,0,6.96-1.95,7.8-2.68-.24-.14-.46-.29-.67-.42-1.41,1.2-6.56,4.64-15.45.11l-.14.79Z"/>
    </g>
    <g>
      <path class="st16" d="M95.21,392.99h37.67c.05-.45.14-1.82-.15-3.27-.02-.03-36.99.21-36.99.21l-.53,3.06Z"/>
      <path class="st11" d="M95.74,389.93l36.97-.24c-.36-3.83-5.16-5.63-9.64-6.77-.3-.08-.6-.14-.89-.22-.64-.15-1.27-.29-1.87-.42-.31-.07-.61-.14-.9-.2-1.55-.35-2.84-.64-3.58-.99-.67-.32-1.47-.78-2.18-1.2-.24-.14-.46-.29-.67-.42-.67-.42-1.14-.73-1.14-.73-2.42.79-6.06,3.07-14.07-.55l-.24,1.39-.14.79-1.66,9.57Z"/>
      <g>
        <path class="st16" d="M122.18,382.7c.56,1.29.62,2.68.62,2.7l.76-.03c0-.08-.05-1.21-.48-2.45-.3-.08-.6-.14-.89-.22Z"/>
        <path class="st16" d="M119.41,382.08c.62,1.34.68,2.82.68,2.84l.76-.02c0-.08-.05-1.32-.54-2.62-.31-.07-.61-.14-.9-.2Z"/>
      </g>
      <path class="st16" d="M97.4,380.36c3.3,1.64,6.12,2.21,8.45,2.21,4.32,0,6.96-1.95,7.8-2.68-.24-.14-.46-.29-.67-.42-1.41,1.2-6.56,4.64-15.45.11l-.14.79Z"/>
    </g>
    <path class="st16" d="M105.76,183.62l-.68-.39c2.1-3.6,5.3-6.87,9.5-9.71l.44.65c-4.11,2.77-7.23,5.95-9.26,9.45Z"/>
    <rect class="st16" x="106.67" y="174.56" width="15.67" height=".78" transform="translate(-79.13 253.86) rotate(-78.97)"/>
    <rect class="st16" x="191.26" y="166.77" width="10.82" height=".78" transform="translate(-61.12 154.25) rotate(-37.5)"/>
    <path class="st15" d="M105.62,211.45c.73.58,2.99,2.53,3.91,2.68.85.15,5.54.34,5.41,1.33-.14,1.04-3.34.23-3.31,1.07.02.52,6.27,2.2,5.64,3.3-.41.72-4.06-.82-4.13-.37-.07.42,4.82,1.37,4.26,2.47-.58,1.15-5.28-1.74-5.52-1.2-.12.27,5.59,2.32,5.11,3.2-.64,1.18-5.02-1.72-5.36-1.21-.17.25,1.57,1,2.54,1.58.54.32.37.81-.06.79-4.41-.2-9.94-5.56-10.65-5.81-1.05-.38-2.07-.77-3.06-1.17l5.23-6.65Z"/>
  </g>
  <g>
    <g>
      <polygon class="st12" points="513.65 382.42 515.33 362.67 500.85 362.67 501.73 382.42 513.65 382.42"/>
      <path class="st6" d="M515.29,362.98l-.96,11.12c-5.1.33-10.03-.3-13.01-.82l-.52-11.48,14.49,1.18Z"/>
    </g>
    <g>
      <path class="st16" d="M517.46,392.99h-37.67c-.05-.45-.14-1.82.15-3.27.02-.03,36.99.21,36.99.21l.53,3.06Z"/>
      <path class="st11" d="M516.93,389.93l-36.97-.24c.36-3.83,5.16-5.63,9.64-6.77.3-.08.6-.14.89-.22.64-.15,1.27-.29,1.87-.42.31-.07.61-.14.9-.2,1.55-.35,2.84-.64,3.58-.99.67-.32,1.47-.78,2.18-1.2.24-.14.46-.29.67-.42.67-.42,1.14-.73,1.14-.73,2.42.79,6.06,3.07,14.07-.55l.24,1.39.14.79,1.66,9.57Z"/>
      <g>
        <path class="st16" d="M490.5,382.7c-.56,1.29-.62,2.68-.62,2.7l-.76-.03c0-.08.05-1.21.48-2.45.3-.08.6-.14.89-.22Z"/>
        <path class="st16" d="M493.26,382.08c-.62,1.34-.68,2.82-.68,2.84l-.76-.02c0-.08.05-1.32.54-2.62.31-.07.61-.14.9-.2Z"/>
      </g>
      <path class="st16" d="M515.27,380.36c-3.3,1.64-6.12,2.21-8.45,2.21-4.32,0-6.96-1.95-7.8-2.68.24-.14.46-.29.67-.42,1.41,1.2,6.56,4.64,15.45.11l.14.79Z"/>
    </g>
    <g>
      <polygon class="st12" points="428.84 382.42 435.07 362.67 420.59 362.67 416.17 382.42 428.84 382.42"/>
      <path class="st6" d="M435.1,362.5l-3.43,10.86c-6.52,1.16-11.54.06-13.32-.44l2.47-11.03h5.17l9.12.61Z"/>
    </g>
    <path class="st4" d="M505.43,134.67s39.08,7.16,35.56,45.82c-1.46,16.07-9.83,22.24-9.83,22.24l-8.23-8.65-15.63,5.26-1.86-64.66Z"/>
    <polygon class="st0" points="483.72 138.4 486.47 117.39 498.89 117.39 501.83 138.4 483.72 138.4"/>
    <path class="st0" d="M490.08,125.5c7.85-2.21,17.13-13.05,13.66-25.58-2.75-9.94-19.72-7.2-24.25,1.33-7.03,13.23-7.46,29.32,10.59,24.24Z"/>
    <path class="st19" d="M553.27,194.42l-3.66,12.17c-1.07,3.57-4.93,5.53-8.51,4.32l-178.12-60.17c-3.41-1.15-5.3-4.76-4.27-8.17,1.02-3.4,4.59-5.37,8.07-4.46l181.78,48c3.65.96,5.79,4.72,4.71,8.3Z"/>
    <circle class="st4" cx="325.09" cy="127.93" r="71.1" transform="translate(123.78 413.45) rotate(-76.29)"/>
    <path class="st15" d="M418.4,159.43c-.76-.54-3.24-2.2-3.64-3.04-.37-.78-1.82-5.24-2.74-4.85-.96.41.68,3.28-.14,3.47-.5.12-3.81-5.44-4.69-4.54-.58.59,1.88,3.68,1.47,3.88-.38.18-2.62-4.27-3.53-3.43-.95.87,3.1,4.62,2.65,4.99-.23.19-3.74-4.75-4.46-4.05-.96.94,3.02,4.37,2.61,4.84-.2.23-1.39-1.24-2.2-2.02-.45-.43-.88-.14-.74.27,1.38,4.19,8.04,8.07,8.47,8.68.64.91,1.3,1.79,1.95,2.63l4.99-6.83Z"/>
    <path class="st4" d="M325.03,191.16c-2.86,0-5.74-.2-8.62-.6-2.94-.4-5.86-1.02-8.69-1.83-30.11-8.56-49.56-38.43-45.26-69.49.66-4.78,1.87-9.49,3.6-14.02,1.99-5.19,4.67-10.11,7.97-14.62,2.33-3.18,4.99-6.18,7.9-8.89,4.05-3.78,8.56-7.01,13.43-9.59,11.81-6.32,25.11-8.68,38.43-6.83,7.44,1.03,14.53,3.33,21.08,6.83,4.86,2.6,9.37,5.82,13.4,9.59,2.91,2.72,5.56,5.71,7.87,8.89,3.29,4.49,5.98,9.41,7.99,14.62,1.9,4.91,3.17,10.07,3.79,15.32.31,2.63.45,5.32.42,7.99-.02,2.67-.22,5.39-.6,8.07-.34,2.45-.82,4.89-1.43,7.26-.68,2.59-1.51,5.13-2.48,7.54-2.19,5.5-5.15,10.66-8.79,15.32-12.06,15.49-30.66,24.42-50,24.42ZM324.98,65.46c-10.19,0-20.16,2.49-29.25,7.35-4.8,2.56-9.27,5.75-13.26,9.48-2.88,2.68-5.51,5.64-7.8,8.78-3.26,4.46-5.91,9.32-7.87,14.44-1.71,4.47-2.9,9.12-3.55,13.84-4.25,30.67,14.96,60.18,44.7,68.63,2.79.8,5.68,1.4,8.58,1.8,22.03,3.06,44.22-5.96,57.9-23.53,3.59-4.61,6.51-9.7,8.68-15.13.96-2.38,1.78-4.89,2.45-7.45.6-2.34,1.08-4.75,1.41-7.17.37-2.65.57-5.33.59-7.97.03-2.64-.11-5.29-.41-7.89-.61-5.19-1.87-10.28-3.74-15.13-1.98-5.15-4.64-10.01-7.89-14.44-2.29-3.14-4.9-6.1-7.77-8.78-3.98-3.72-8.43-6.91-13.23-9.48-6.47-3.46-13.47-5.73-20.82-6.75-2.91-.4-5.81-.6-8.7-.6Z"/>
    <path class="st19" d="M335.45,53.35c-41.2-5.71-79.21,23.05-84.92,64.24-5.72,41.18,23.04,79.2,64.24,84.92,41.18,5.71,79.2-23.05,84.91-64.23,5.72-41.19-23.04-79.2-64.22-84.92ZM387.21,136.54c-4.76,34.31-36.42,58.26-70.74,53.51-34.31-4.76-58.26-36.43-53.51-70.74,4.76-34.31,36.42-58.27,70.75-53.51,34.31,4.76,58.25,36.43,53.5,70.74Z"/>
    <path class="st4" d="M325.23,194.43c-3.08,0-6.17-.21-9.27-.64-36.31-5.03-61.76-38.67-56.72-74.99,2.44-17.59,11.58-33.19,25.75-43.9,14.16-10.71,31.66-15.27,49.25-12.83,17.59,2.44,33.17,11.58,43.89,25.75,10.71,14.16,15.27,31.65,12.83,49.25-2.44,17.59-11.58,33.18-25.74,43.89-11.67,8.83-25.59,13.47-39.97,13.47ZM324.96,62.21c-14.21,0-27.97,4.59-39.51,13.32-14,10.59-23.03,25.99-25.44,43.38-4.98,35.89,20.17,69.13,56.06,74.11,17.38,2.41,34.67-2.09,48.67-12.68,14-10.59,23.03-25.99,25.44-43.37,2.41-17.39-2.09-34.67-12.68-48.67-10.58-14-25.99-23.03-43.37-25.44-3.06-.42-6.13-.64-9.17-.64Z"/>
    <path class="st16" d="M325.25,203c-3.47,0-6.97-.24-10.47-.73-40.99-5.68-69.72-43.66-64.04-84.66,2.75-19.86,13.08-37.46,29.07-49.56,15.99-12.1,35.74-17.24,55.6-14.49,19.86,2.75,37.45,13.08,49.55,29.07,12.09,15.99,17.23,35.74,14.48,55.6-2.75,19.86-13.07,37.46-29.06,49.55-13.17,9.96-28.89,15.21-45.13,15.21ZM324.94,53.63c-16.07,0-31.63,5.19-44.66,15.05-15.82,11.97-26.04,29.39-28.76,49.04-5.62,40.57,22.8,78.15,63.37,83.78,19.65,2.73,39.19-2.37,55.02-14.34,15.82-11.97,26.04-29.38,28.76-49.03,2.73-19.66-2.36-39.2-14.33-55.02-11.97-15.82-29.38-26.04-49.03-28.76-3.46-.48-6.93-.72-10.36-.72Z"/>
    <g class="st17">
      <path class="st2" d="M307.82,105.37v82.99c-29.67-8.43-49.33-37.65-44.98-69.06.67-4.87,1.89-9.53,3.57-13.93h41.4Z"/>
      <path class="st14" d="M387.52,120.6h-70.26v-15.23h66.5c1.87,4.84,3.14,9.95,3.76,15.23Z"/>
      <path class="st14" d="M387.94,128.54c-.02,2.65-.22,5.33-.59,8.03-.34,2.46-.82,4.87-1.42,7.21h-68.66v-15.24h70.68Z"/>
      <path class="st14" d="M383.45,151.27c-2.21,5.53-5.16,10.65-8.74,15.23h-57.46v-15.23h66.2Z"/>
      <path class="st14" d="M354.69,72.46h-59.14c11.29-6.04,24.54-8.68,38.19-6.79,7.55,1.05,14.6,3.39,20.95,6.79Z"/>
      <path class="st2" d="M375.82,90.84h-101.47c2.34-3.2,4.97-6.16,7.85-8.84h85.8c2.89,2.7,5.51,5.66,7.82,8.84Z"/>
    </g>
    <path class="st11" d="M489.4,368.26c13.69,2.15,26.42,3.04,36.1,0,0,0,8.19-91.79-6.33-176.12l-29.03.13s-11.17,101.35-.74,175.99Z"/>
    <path class="st11" d="M409.58,368.26c13.22,1.87,25.58,2.3,36.32,0,44.55-82.64,63.19-175.99,63.19-175.99h-34.42c-44.46,76.59-65.09,175.99-65.09,175.99Z"/>
    <path class="st4" d="M438.25,168.26l-19.54-10.51-7.12,9.26s11.52,30.02,34.1,27.5c18.07-2.02,28.96-35.88,28.96-35.88l-36.4,9.65Z"/>
    <path class="st4" d="M527.78,217.42c-31.08,14.15-76.25,1.76-76.25,1.76l1.38-4.58.21-.71,11.75-39.12-30.9-.37s20.7-29.04,32.75-36.11c3.15-1.84,7.37-3.24,12.14-4.11.37-.07.75-.13,1.13-.19,7.76-1.27,16.84-1.18,25.12.57.29.06.58.12.87.19,4.64,1.05,9,2.63,12.7,4.8,0,0-2.22,12.48.89,20.95,7.06,19.27,8.13,42.29,8.24,52.1,0,.28,0,.54,0,.79.02,2.55-.03,4.02-.03,4.02Z"/>
    <rect class="st16" x="431.97" y="163.22" width="20.45" height=".78" transform="translate(36.03 403.06) rotate(-50.83)"/>
    <path class="st16" d="M488.55,107.99s-10.13-3.8-7.46-16.06c0,0,1.17.93,4.76.63,3.29-.27,15.49-5.43,21.62,6.3,6.08,11.63-2.27,25.45-10.53,23.05-7.62-2.21-8.53-11.26-8.4-13.93Z"/>
    <circle class="st0" cx="490.35" cy="110.99" r="3.5"/>
    <path class="st16" d="M525.06,118.59c1.18.24,5.08,1.33,6.61,5.2,1.97,5.02,3.18,8.04,9.53,8.61l-1.67,1.94c-13.39.71-5.79-15.87-17.31-13.16-3.66.86-4.99-5.15-6.11-14.02-1.12-8.88-10.35-4.64-10.35-4.64l-.12-4.56s5.58-9.62,13.55-4.65c7.97,4.97,5.5,16.47,16.77,9.62,13.24-8.04,21.09,11.02,21.09,11.02l-15.09,17.56c-1.44.02-5.87-.28-8.07-4.59-2.73-5.35-3.23-7.36-8.84-8.34Z"/>
    <path class="st16" d="M483.66,126.88c-3.93,0-6.06-2.03-6.18-2.15l.55-.56c.15.15,3.79,3.58,10.51.92l.29.73c-1.97.78-3.69,1.07-5.17,1.07Z"/>
    <path class="st0" d="M501.18,133.67c-9.16,4.31-16.77-.4-16.77-.4l.21-1.68,16.22-.21.34,2.29Z"/>
    <path class="st16" d="M527.81,213.4c-11.96,4.92-24.77,6.53-36.43,6.53-17.94,0-33.18-3.83-38.48-5.33l.21-.71c8.69,2.48,44.47,11.28,74.68-1.29,0,.28,0,.54,0,.79Z"/>
    <path class="st16" d="M527.39,217.42c0-.33-.11-33.6-8.19-56.78l.74-.26c8.13,23.3,8.24,56.7,8.24,57.04h-.78Z"/>
    <path class="st16" d="M505.98,134.75c-3.39,3.26-7.38,4.37-11.27,4.37-7.49,0-14.53-4.13-15.84-4.93.37-.07.75-.13,1.13-.19,3.56,2.05,16.38,8.45,25.12.57.29.06.58.12.87.19Z"/>
    <g>
      <path class="st16" d="M432.9,392.99h-37.67c-.05-.45-.14-1.82.15-3.27.02-.03,36.99.21,36.99.21l.53,3.06Z"/>
      <path class="st11" d="M432.37,389.93l-36.97-.24c.36-3.83,5.16-5.63,9.64-6.77.3-.08.6-.14.89-.22.64-.15,1.27-.29,1.87-.42.31-.07.61-.14.9-.2,1.55-.35,2.84-.64,3.58-.99.67-.32,1.47-.78,2.18-1.2.24-.14.46-.29.67-.42.67-.42,1.14-.73,1.14-.73,2.42.79,6.06,3.07,14.07-.55l.24,1.39.14.79,1.66,9.57Z"/>
      <g>
        <path class="st16" d="M405.93,382.7c-.56,1.29-.62,2.68-.62,2.7l-.76-.03c0-.08.05-1.21.48-2.45.3-.08.6-.14.89-.22Z"/>
        <path class="st16" d="M408.7,382.08c-.62,1.34-.68,2.82-.68,2.84l-.76-.02c0-.08.05-1.32.54-2.62.31-.07.61-.14.9-.2Z"/>
      </g>
      <path class="st16" d="M430.7,380.36c-3.3,1.64-6.12,2.21-8.45,2.21-4.32,0-6.96-1.95-7.8-2.68.24-.14.46-.29.67-.42,1.41,1.2,6.56,4.64,15.45.11l.14.79Z"/>
    </g>
    <path class="st16" d="M557.45,111.83c-.04-.1-4.43-9.82-11.58-11.95-3.01-.9-6.11-.33-9.23,1.68-3,1.93-5.22,2.64-7,2.22-2.1-.5-3.26-2.46-4.61-4.73-1.37-2.31-2.92-4.94-5.84-6.64-2.06-1.21-4.12-1.54-6.11-.99-4.16,1.15-6.74,5.81-6.76,5.85l-.69-.37c.11-.2,2.75-4.99,7.24-6.23,2.21-.61,4.46-.25,6.72,1.07,3.09,1.81,4.7,4.53,6.11,6.92,1.26,2.12,2.34,3.95,4.12,4.37,1.56.37,3.59-.31,6.39-2.12,3.32-2.14,6.64-2.74,9.88-1.77,7.5,2.24,11.89,11.97,12.07,12.38l-.71.32Z"/>
    <path class="st16" d="M488.46,108.37c-5.3-1.28-8.57-3.55-9.73-6.73-1.73-4.75,1.89-9.73,2.04-9.94l.63.46s-3.52,4.85-1.94,9.21c1.06,2.92,4.15,5.02,9.18,6.24l-.18.76Z"/>
    <path class="st16" d="M446.24,368.45l-.69-.37c23.94-44.41,40.3-91.98,49.82-124.07l.75.22c-9.52,32.12-25.91,79.75-49.88,124.22Z"/>
    <rect class="st16" x="468.1" y="169.87" width="6.51" height=".78" transform="translate(34.15 415.23) rotate(-49.12)"/>
    <path class="st16" d="M524.2,213.33h-.78c0-7.61-.92-17.17-.93-17.27l.78-.08c0,.1.93,9.69.93,17.35Z"/>
    <path class="st16" d="M443.04,195.04c-20.86,0-31.7-27.6-31.82-27.89l.73-.28c.11.3,11.68,29.7,33.69,27.25,17.61-1.97,28.52-35.28,28.63-35.62l.74.24c-.45,1.39-11.18,34.13-29.29,36.15-.92.1-1.81.15-2.69.15Z"/>
    <g>
      <g class="st8">
        <path class="st4" d="M376.23,151.19c.68-5.41,1.22-10.53,1.39-15.63.12-5.08-.07-10.11-.7-15.06-.61-4.97-1.66-9.86-3.05-14.76-1.43-4.89-3.25-9.72-5.25-14.79l.32-.23c1.6,2.13,3.06,4.35,4.37,6.67,1.3,2.32,2.45,4.73,3.45,7.2,2,4.94,3.36,10.14,4.04,15.43.65,5.29.61,10.67-.09,15.95-.35,2.64-.86,5.26-1.54,7.83-.7,2.57-1.56,5.09-2.58,7.55l-.36-.15Z"/>
      </g>
      <g class="st8">
        <path class="st4" d="M332.74,183.77c-2.96-.36-5.84-.91-8.64-1.63-29.67-7.56-49.33-33.77-44.98-61.95.67-4.37,1.89-8.55,3.57-12.5,2.01-4.7,4.69-9.07,7.92-13.04,2.34-2.87,4.97-5.52,7.85-7.93,4-3.35,8.49-6.24,13.34-8.55,7.23-3.47,15.26-5.68,23.68-6.39-12.62-1.04-24.78,1.36-35.27,6.39-4.85,2.32-9.34,5.2-13.34,8.55-2.88,2.41-5.51,5.06-7.85,7.93-3.23,3.96-5.91,8.34-7.92,13.04-1.68,3.95-2.9,8.13-3.57,12.5-4.36,28.18,15.31,54.39,44.98,61.95,2.79.72,5.68,1.26,8.64,1.63,4.91.61,9.76.69,14.49.3-.97-.08-1.94-.18-2.91-.3ZM332.74,183.77c-2.96-.36-5.84-.91-8.64-1.63-29.67-7.56-49.33-33.77-44.98-61.95.67-4.37,1.89-8.55,3.57-12.5,2.01-4.7,4.69-9.07,7.92-13.04,2.34-2.87,4.97-5.52,7.85-7.93,4-3.35,8.49-6.24,13.34-8.55,7.23-3.47,15.26-5.68,23.68-6.39-12.62-1.04-24.78,1.36-35.27,6.39-4.85,2.32-9.34,5.2-13.34,8.55-2.88,2.41-5.51,5.06-7.85,7.93-3.23,3.96-5.91,8.34-7.92,13.04-1.68,3.95-2.9,8.13-3.57,12.5-4.36,28.18,15.31,54.39,44.98,61.95,2.79.72,5.68,1.26,8.64,1.63,4.91.61,9.76.69,14.49.3-.97-.08-1.94-.18-2.91-.3Z"/>
      </g>
    </g>
    <g>
      <g>
        <path class="st11" d="M298.1,110.01h4.75v25.38c0,3.43-1.03,6.11-3.09,8.05-2.06,1.94-4.8,2.9-8.23,2.9s-6.33-.91-8.32-2.73c-1.99-1.82-2.98-4.37-2.98-7.65h4.73c0,2.05.56,3.65,1.69,4.8,1.12,1.15,2.75,1.72,4.89,1.72,1.95,0,3.53-.62,4.74-1.85,1.21-1.23,1.82-2.95,1.83-5.17v-25.45Z"/>
        <path class="st11" d="M338.47,129.08c0,3.51-.59,6.58-1.77,9.19-1.18,2.62-2.85,4.61-5.02,5.99-2.17,1.38-4.69,2.07-7.58,2.07s-5.32-.69-7.51-2.08c-2.18-1.39-3.88-3.36-5.08-5.93-1.21-2.57-1.83-5.54-1.86-8.92v-2.58c0-3.45.6-6.49,1.8-9.13,1.2-2.64,2.89-4.66,5.08-6.07,2.19-1.4,4.7-2.1,7.52-2.1s5.4.69,7.59,2.08c2.19,1.39,3.88,3.4,5.06,6.03,1.18,2.63,1.77,5.7,1.77,9.19v2.26ZM333.77,126.77c0-4.25-.85-7.51-2.56-9.78-1.71-2.27-4.09-3.41-7.16-3.41s-5.34,1.14-7.05,3.41c-1.71,2.27-2.6,5.43-2.65,9.46v2.63c0,4.12.87,7.36,2.6,9.71,1.73,2.36,4.11,3.53,7.15,3.53s5.41-1.11,7.09-3.34c1.67-2.22,2.54-5.41,2.58-9.56v-2.66Z"/>
        <path class="st11" d="M345.56,145.84v-35.84h11.72c3.89,0,6.81.8,8.77,2.41,1.96,1.61,2.94,3.99,2.94,7.14,0,1.67-.48,3.15-1.43,4.44-.95,1.29-2.25,2.29-3.89,2.99,1.94.54,3.47,1.57,4.59,3.09,1.12,1.52,1.69,3.33,1.69,5.43,0,3.22-1.04,5.74-3.13,7.58-2.08,1.84-5.03,2.76-8.84,2.76h-12.43ZM350.29,125.29h7.14c2.07,0,3.72-.52,4.96-1.55,1.24-1.04,1.86-2.44,1.86-4.22,0-1.97-.57-3.41-1.72-4.3-1.15-.9-2.9-1.34-5.24-1.34h-6.99v11.42ZM350.29,129.08v12.9h7.8c2.2,0,3.93-.57,5.21-1.71,1.27-1.14,1.91-2.71,1.91-4.71,0-4.32-2.35-6.47-7.04-6.47h-7.88Z"/>
      </g>
      <g>
        <path class="st11" d="M291.53,147.84c-3.93,0-7.07-1.05-9.33-3.13-2.3-2.11-3.46-5.06-3.46-8.76v-1.5h7.73v1.5c0,1.66.41,2.89,1.26,3.75.84.86,2.08,1.27,3.81,1.27,1.55,0,2.75-.46,3.67-1.4.93-.95,1.39-2.3,1.41-4.13v-26.94h7.75v26.88c0,3.84-1.2,6.92-3.56,9.14-2.34,2.2-5.45,3.31-9.26,3.31ZM281.82,137.45c.24,2.13,1.04,3.79,2.41,5.05,1.69,1.55,4.15,2.34,7.31,2.34s5.42-.82,7.21-2.5c1.76-1.66,2.62-3.93,2.62-6.96v-23.88h-1.75v23.95c-.02,2.62-.78,4.71-2.26,6.22-1.49,1.52-3.45,2.3-5.81,2.3-2.54,0-4.55-.73-5.96-2.17-1.1-1.13-1.78-2.59-2.02-4.35h-1.74Z"/>
        <path class="st11" d="M324.1,147.84c-3.1,0-5.9-.78-8.31-2.31-2.42-1.53-4.31-3.74-5.64-6.56-1.29-2.75-1.97-5.96-2-9.55v-2.6c0-3.65.65-6.93,1.93-9.75,1.31-2.9,3.21-5.16,5.64-6.71,2.42-1.55,5.23-2.34,8.33-2.34s5.97.78,8.4,2.31c2.43,1.54,4.33,3.79,5.62,6.68,1.26,2.81,1.9,6.11,1.9,9.81v2.26c0,3.71-.64,7.01-1.9,9.81-1.3,2.88-3.18,5.11-5.58,6.64-2.4,1.53-5.22,2.3-8.39,2.3ZM324.05,111.01c-2.52,0-4.78.63-6.71,1.87-1.93,1.24-3.46,3.06-4.53,5.42-1.1,2.43-1.66,5.3-1.66,8.51v2.58c.03,3.13.61,5.92,1.72,8.29,1.08,2.29,2.6,4.08,4.53,5.3,1.93,1.23,4.18,1.85,6.7,1.85s4.86-.62,6.78-1.83c1.91-1.21,3.41-3.01,4.46-5.34,1.09-2.41,1.64-5.3,1.64-8.58v-2.26c0-3.27-.55-6.15-1.64-8.58-1.05-2.35-2.56-4.16-4.49-5.38-1.94-1.23-4.22-1.85-6.79-1.85ZM324.1,143.82c-3.52,0-6.34-1.39-8.36-4.14-1.92-2.61-2.89-6.17-2.89-10.6v-2.63c.05-4.36,1.04-7.84,2.95-10.37,2-2.66,4.78-4.01,8.25-4.01s6.36,1.35,8.36,4.01c1.9,2.53,2.86,6.12,2.86,10.68v2.66c-.05,4.48-1.02,7.99-2.89,10.46-1.96,2.61-4.75,3.93-8.29,3.93ZM324.05,115.08c-2.51,0-4.43.92-5.85,2.81-1.51,2-2.3,4.89-2.34,8.58v2.62c0,3.77.78,6.74,2.31,8.82,1.44,1.97,3.39,2.92,5.94,2.92s4.5-.9,5.89-2.74c1.47-1.95,2.24-4.87,2.28-8.68v-2.64c0-3.9-.76-6.89-2.26-8.88-1.42-1.89-3.37-2.81-5.96-2.81Z"/>
        <path class="st11" d="M357.99,147.34h-13.93v-38.84h13.22c4.23,0,7.5.93,9.73,2.75,2.32,1.9,3.49,4.69,3.49,8.3,0,1.99-.58,3.79-1.72,5.33-.53.71-1.14,1.35-1.85,1.91.99.63,1.84,1.43,2.55,2.39,1.31,1.77,1.98,3.9,1.98,6.32,0,3.65-1.22,6.58-3.63,8.71-2.36,2.08-5.66,3.13-9.83,3.13ZM347.06,144.34h10.93c3.41,0,6.05-.8,7.84-2.38,1.76-1.55,2.62-3.67,2.62-6.46,0-1.79-.45-3.27-1.39-4.53-.93-1.25-2.17-2.08-3.79-2.54l-4.09-1.14,3.9-1.68c1.4-.6,2.48-1.42,3.27-2.5.76-1.03,1.13-2.19,1.13-3.55,0-2.7-.78-4.66-2.39-5.98-1.68-1.37-4.31-2.07-7.82-2.07h-10.22v32.84ZM358.09,143.48h-9.3v-15.9h9.38c5.51,0,8.54,2.83,8.54,7.97,0,2.44-.81,4.4-2.41,5.83-1.55,1.39-3.64,2.09-6.21,2.09ZM351.79,140.48h6.3c1.83,0,3.21-.43,4.2-1.33.95-.85,1.41-2.03,1.41-3.6,0-3.49-1.66-4.97-5.54-4.97h-6.38v9.9ZM357.42,126.79h-8.64v-14.42h8.49c2.71,0,4.73.54,6.16,1.66,1.53,1.19,2.3,3.04,2.3,5.49,0,2.23-.81,4.04-2.4,5.37-1.51,1.26-3.5,1.9-5.92,1.9ZM351.79,123.79h5.64c1.72,0,3.03-.39,4-1.2.9-.75,1.32-1.73,1.32-3.07,0-1.5-.37-2.52-1.15-3.12-.87-.68-2.33-1.03-4.32-1.03h-5.49v8.42Z"/>
      </g>
    </g>
  </g>
  <g>
    <path class="st16" d="M633.67,94.34c10.51.91,14.54,6.3,16.49,10.1s2.43,8.05,2.92,12.21,1.02,8.41,3.08,12.17c1.77,3.23,4.62,5.99,5.93,9.4,1.72,4.46.4,9.74-3.3,13.25-9.58-3.15-19.06-5.54-28.64-8.69,2.32-14.62,3.53-48.43,3.53-48.43Z"/>
    <g>
      <path class="st16" d="M596.77,156.85c-3.96-20.32,14.26-23.2,17.47-35.58,1.75-6.76.9-26.69,17.66-26.98,15.21-.27,17.01,17.12,17.01,17.12l-4.31-5.8-16.75,1.14c.11,5.51-1.62,9.03-1.62,9.03l9.66,11.04-9.65,25.42-29.46,4.62Z"/>
      <path class="st16" d="M592.45,156.05c-1.88-12.93,4.46-18.57,10.6-24.03,3.68-3.27,7.16-6.37,8.57-10.9.36-1.17.67-2.77,1.02-4.63,1.58-8.33,4.21-22.22,18.4-21.83l-.03,1c-13.28-.4-15.77,12.49-17.39,21.02-.36,1.88-.67,3.51-1.05,4.74-1.49,4.8-5.07,7.98-8.86,11.35-5.94,5.28-12.08,10.74-10.27,23.14l-.99.14Z"/>
    </g>
    <polygon class="st3" points="692.45 310.79 700.91 319.3 672.15 319.71 692.45 310.79"/>
    <path class="st1" d="M678.21,325.01l1.4-14.11h15.19l-3.3,13.7s-1.76,4.59-6.86,4.42c-4.91-.16-6.43-4.01-6.43-4.01Z"/>
    <polygon class="st3" points="605.64 373 561.21 371.57 592.95 363.5 605.64 373"/>
    <path class="st1" d="M591.77,366.06l-2.26,8.42-1.56,5.79s-1.41,3.29-6.34,3.91c-4.87.61-6.43-4.01-6.43-4.01l.51-5.13.9-8.98h15.18Z"/>
    <path class="st6" d="M591.77,366.06l-2.26,8.42c-5.11.77-11.14.66-13.82.56l.9-8.98h15.18Z"/>
    <path class="st6" d="M694.66,311.93l-2.26,8.42c-5.11.77-11.14.66-13.82.56l.9-8.98h15.18Z"/>
    <path class="st5" d="M605.64,373s34.12-87.39,33.11-159.48l-38.85.89c-3.23,10.03-2.68,22.82-3.22,27.61-6.72,60.41-36.34,129.54-36.34,129.54,0,0,9.9,2.18,25.65-1.76,8.76-2.19,15.37.41,19.65,3.2h0Z"/>
    <path class="st16" d="M569.89,371.95l-.69-.29c.29-.69,28.79-70.14,34.66-129.88.12-1.24.17-3.06.22-5.17.14-6,.36-15.06,2.66-22.55l.72.22c-2.27,7.39-2.49,16.39-2.63,22.34-.05,2.13-.09,3.96-.22,5.23-5.89,59.85-34.43,129.4-34.72,130.1Z"/>
    <path class="st5" d="M658.15,313.25s4.81,6.64,12.7,6.37c7.89-.27,17.43-7.54,30.06-.32,0,0,7.91-35.95,10.27-62.71.68-7.69.9-15.12-2.48-19.42-4.01-5.12-11.67-6.96-23.08-10.12-13.34-3.7-24.83-6.86-24.83-6.86l-2.02-8.22-35.67.83,13.57,41.32,33.92,10.32-12.45,48.81Z"/>
    <path class="st0" d="M687.25,142.47c3.15.2,6.76-3.03,7.04-6.04.15-1.55.74-2.46-.44-2.59.36-1.26-.15-1.85-1.42-1.77.11-1.23-.5-1.56-1.38-1.47.08-2.93-6.78,1.96-7.49,2.66-1.74,1.72-1.9,5.03-1.9,5.03l-10.49,31.92-2.93-8.12-21.97,11.85s5.5,11.98,16.17,17.42c4.73,2.42,11.66,2.88,14.65,1.88,10.55-3.52,12.9-12.07,12.71-24.76-.2-13.19-2.56-26-2.56-26Z"/>
    <path class="st19" d="M591.92,220.79c22.68,18.57,71.21-2.4,71.21-2.4l-7.15-54.15-13.37-24.42s-6.92,7.96-15.85-1.33l-27.71,10.28,1.84,30.62s-8.96,41.41-8.96,41.41Z"/>
    <path class="st19" d="M596.34,179.82l62.61,1.12s7.7-11.8,12.46-13.87c0,0-9.69-26.86-35.93-29.06-3.89-.33-7.55-.56-11.01-.62l-28.13,42.44Z"/>
    <path class="st0" d="M625.09,139.04c1.76-5.85,2.27-12.3,1.57-19.35l12.22,6.83,2.38,13.76s-6.33,7.29-16.17-1.23Z"/>
    <path class="st0" d="M644.99,104.34c3.53,6.02,7.96,25.68-.98,27.45-9.35,1.85-15.79-8.37-15.79-8.37,0,0-4.27,2.51-6.11-1.35-1.66-3.48,2.43-5.99,4.24-4.72,0,0-3.61-8.64.97-12.9,4.58-4.25,13.85-6.63,17.68-.11Z"/>
    <path class="st16" d="M671.78,173.78c-.51-1.35.03-2.96.04-2.98l-.75-.24c-.03.08-.63,1.89-.03,3.5l.74-.28Z"/>
    <path class="st16" d="M626.35,117.35s11.74-3.19,14.47-12c0,0,3.8,5.52,7.79,6.65,0,0,.91-12.96-10.7-13.67-11.61-.71-15.72,10.81-14.31,14.64.91,2.45,2.75,4.38,2.75,4.38Z"/>
    <g>
      <g>
        <path class="st4" d="M697.84,107.21c7.3,9.46,17.27,14.12,22.27,10.4,5-3.72,3.13-14.4-4.16-23.86-7.3-9.46-17.27-14.12-22.27-10.4-5,3.72-3.13,14.4,4.16,23.86Z"/>
        <polygon class="st16" points="700.4 100.01 694.33 102.99 700.75 112.86 706.21 107.79 700.4 100.01"/>
        <path class="st11" d="M701.51,105.38c1.56,2.16,3.63,3.28,4.61,2.5.98-.78.51-3.17-1.05-5.33-1.56-2.16-3.63-3.28-4.61-2.5-.98.78-.51,3.17,1.05,5.33Z"/>
        <path class="st16" d="M681.54,126.48l7.29,15.75c.31.66,1.16.87,1.75.43l3.28-2.44c.53-.39.71-1.09.46-1.68l-7.58-17.57-5.19,5.52Z"/>
        <path class="st11" d="M673.74,126.62c1.8,2.33,4.15,3.67,5.71,3.38l39.27-11.46c-6.79,1.66-15.02-3.73-20.88-11.33-5.32-6.89-9.14-16.18-5.62-22.8l-20.29,36.01c-.62,1.42.07,3.93,1.82,6.2Z"/>
        <path class="st16" d="M673.74,126.62c1.8,2.33,4.15,3.67,5.71,3.38l5.38-1.61c-2.08-.29-4.8-2.15-7.01-5.02-2.15-2.79-3.25-5.79-3.04-7.84l-2.86,4.88c-.62,1.42.07,3.93,1.82,6.2Z"/>
        <path class="st16" d="M709.47,118.1c-4.33-2.02-8.7-5.71-12.31-10.39-7.7-9.98-9.45-20.97-4-25.03,5.45-4.06,15.76.58,23.45,10.56,3.61,4.68,6.04,9.81,6.85,14.45.84,4.83-.17,8.59-2.85,10.58-1.33.99-2.98,1.47-4.85,1.45-1.9-.02-4.03-.56-6.3-1.62ZM694.18,84.01c-4.54,3.38-2.56,13.77,4.33,22.69,3.45,4.47,7.6,7.98,11.68,9.89,3.91,1.82,7.24,1.95,9.39.35,2.15-1.6,2.94-4.79,2.21-8.97-.76-4.38-3.08-9.25-6.53-13.72-5.33-6.91-12.32-11.28-17.31-11.34-1.46-.02-2.74.34-3.77,1.1Z"/>
      </g>
      <g>
        <polygon class="st16" points="724.98 100.19 744.39 97.85 744.24 96.61 724.82 98.95 724.98 100.19"/>
        <polygon class="st16" points="721.68 88.89 734.09 78.31 733.26 77.37 720.85 87.95 721.68 88.89"/>
        <polygon class="st16" points="710.57 81.13 714.96 73.27 713.85 72.67 709.46 80.53 710.57 81.13"/>
      </g>
    </g>
    <path class="st0" d="M579.21,231.02s-1.77,8.09.23,11.55c.22.39.74.27.71-.39-.05-1.18-.38-3.14-.07-3.13.63.01.59,5.51,1.98,5.42,1.03-.08-.42-6.26-.12-6.31.61-.09.75,5.68,2.08,5.55,1.26-.12-.67-4.97-.27-5.14.43-.19,1.16,3.89,2.01,3.85,1.3-.05-.76-6.52-.32-6.82.7-.5,1.81,2.79,2.78,2.32.93-.44-2.83-6.84-2.8-7.6.35-7.71,6.66-36.02,6.66-36.02l11.58-20.24-19.91-7.75s-6.38,9.03-9.27,20.35c-5.17,20.28,4.71,44.36,4.71,44.36Z"/>
    <path class="st19" d="M575.05,177.78s12.12,10.78,25.43,9.59l20.89-21.63.34-2.31.12-.87,2-13.67.12-.83,1.32-9.04.24-1.65c-40.27,3.18-50.46,40.4-50.46,40.4Z"/>
    <g>
      <path class="st0" d="M694.58,134.19c.33.47.16,1.11-.35,1.36-.92.45-2.1.75-2.52.47-.74-.51.57-1.4,1.55-2.07.43-.29,1.02-.18,1.32.24h0Z"/>
      <path class="st0" d="M693.31,133.2c.13.42-.04.87-.42,1.1-.95.56-2.55,1.19-3.13.56-.37-.4.92-1.43,2.02-2.22.53-.39,1.34-.06,1.54.57h0Z"/>
      <path class="st0" d="M691.84,131.17c.33.4.29.98-.11,1.31-.86.71-2.2,1.48-3.35,1.09-.98-.33.89-1.77,2.05-2.65.41-.31.99-.24,1.32.15l.09.1Z"/>
      <path class="st0" d="M691.27,129.3c.39.52.23,1.26-.33,1.58-1.04.59-2.42,1.09-3.08.79-.71-.32.71-1.6,1.79-2.54.49-.43,1.24-.35,1.63.17h0Z"/>
      <path class="st0" d="M682.55,134.59c1.11-2.89,3.82-6.06,4.43-5.39.61.67-1.31,2.97-1.15,4,.22,1.35.37,2.6-1.28,4.81l-2.01-3.42Z"/>
    </g>
    <path class="st16" d="M591.67,193.83l.04-.83s-2.22-.11-2.92-1.82l-.79.32c.9,2.21,3.55,2.34,3.67,2.34Z"/>
    <g>
      <path class="st16" d="M674.82,337.82h37.67c.05-.45.14-1.82-.15-3.27-.02-.03-36.99.21-36.99.21l-.53,3.06Z"/>
      <path class="st11" d="M675.34,334.77l36.97-.24c-.36-3.83-5.16-5.63-9.64-6.77-.3-.08-.6-.14-.89-.22-.64-.15-1.27-.29-1.87-.42-.31-.07-.61-.14-.9-.2-1.55-.35-2.84-.64-3.58-.99-.67-.32-1.47-.78-2.18-1.2-.24-.14-.46-.29-.67-.42-.67-.42-1.14-.73-1.14-.73-2.42.79-6.06,3.07-14.07-.55l-.24,1.39-.14.79-1.66,9.57Z"/>
      <g>
        <path class="st16" d="M701.78,327.54c.56,1.29.62,2.68.62,2.7l.76-.03c0-.08-.05-1.21-.48-2.45-.3-.08-.6-.14-.89-.22Z"/>
        <path class="st16" d="M699.01,326.92c.62,1.34.68,2.82.68,2.84l.76-.02c0-.08-.05-1.32-.54-2.62-.31-.07-.61-.14-.9-.2Z"/>
      </g>
      <path class="st16" d="M677.01,325.2c3.3,1.64,6.12,2.21,8.45,2.21,4.32,0,6.96-1.95,7.8-2.68-.24-.14-.46-.29-.67-.42-1.41,1.2-6.56,4.64-15.45.11l-.14.79Z"/>
    </g>
    <g>
      <path class="st16" d="M572.29,392.99h37.67c.05-.45.14-1.82-.15-3.27-.02-.03-36.99.21-36.99.21l-.53,3.06Z"/>
      <path class="st11" d="M572.82,389.93l36.97-.24c-.36-3.83-5.16-5.63-9.64-6.77-.3-.08-.6-.14-.89-.22-.64-.15-1.27-.29-1.87-.42-.31-.07-.61-.14-.9-.2-1.55-.35-2.84-.64-3.58-.99-.67-.32-1.47-.78-2.18-1.2-.24-.14-.46-.29-.67-.42-.67-.42-1.14-.73-1.14-.73-2.42.79-6.06,3.07-14.07-.55l-.24,1.39-.14.79-1.66,9.57Z"/>
      <g>
        <path class="st16" d="M599.26,382.7c.56,1.29.62,2.68.62,2.7l.76-.03c0-.08-.05-1.21-.48-2.45-.3-.08-.6-.14-.89-.22Z"/>
        <path class="st16" d="M596.49,382.08c.62,1.34.68,2.82.68,2.84l.76-.02c0-.08-.05-1.32-.54-2.62-.31-.07-.61-.14-.9-.2Z"/>
      </g>
      <path class="st16" d="M574.49,380.36c3.3,1.64,6.12,2.21,8.45,2.21,4.32,0,6.96-1.95,7.8-2.68-.24-.14-.46-.29-.67-.42-1.41,1.2-6.56,4.64-15.45.11l-.14.79Z"/>
    </g>
    <path class="st16" d="M605.99,373.14l-.7-.27c.23-.59,23.31-60.18,30.77-120.75l.74.09c-7.48,60.66-30.58,120.33-30.82,120.93Z"/>
    <path class="st16" d="M641.04,132.91c-6.12,0-9.18-5.02-9.31-5.24l.86-.51s2.91,4.75,8.45,4.75h.05v1h-.06Z"/>
    <path class="st16" d="M627.42,117.37c-.56,0-.89-.04-.91-.04l.13-.99c.43.05,10.59,1.17,13.69-11.12l.97.25c-2.77,10.96-11.1,11.9-13.87,11.9Z"/>
    <rect class="st16" x="659.17" y="164.01" width=".75" height="54.61" transform="translate(-19.37 87.97) rotate(-7.52)"/>
    <path class="st16" d="M598.78,183.45c-10.08,0-21.07-9.35-21.58-9.78l.49-.57c.13.11,13.31,11.31,23.65,9.37l.14.74c-.89.17-1.79.24-2.7.24Z"/>
    <path class="st16" d="M658.08,176.32l-.7-.28c.18-.45,4.53-11.1,11.39-13.79l.27.7c-6.56,2.57-10.93,13.26-10.97,13.37Z"/>
  </g>
  <path class="st18" d="M828.02,282.66v77.57c-9.14,18.17-17.1,29.92-18.75,32.31-.22.31-.33.46-.33.46h-143.56v-45.54c0-5.21,4.23-9.44,9.44-9.44h35.58c5.21,0,9.43-4.22,9.43-9.43v-36.48c0-5.21,4.23-9.44,9.44-9.44h98.75Z"/>
  <path class="st16" d="M658.51,312.35l-.73-.19,12.52-48.09h.29s3.32-.03,4.47-1.81l.63.41c-1.16,1.8-3.9,2.09-4.81,2.14l-12.38,47.54Z"/>
  <rect class="st16" x="633.39" y="247.46" width="10.04" height=".75" transform="translate(159.41 737.27) rotate(-66.83)"/>
  <path class="st16" d="M672.88,371.75h-.75v-17.18c0-5.41,4.4-9.81,9.81-9.81h35.57c5,0,9.06-4.07,9.06-9.06v-36.47c0-5.41,4.4-9.81,9.81-9.81h17.5v.75h-17.5c-5,0-9.06,4.07-9.06,9.06v36.47c0,5.41-4.4,9.81-9.81,9.81h-35.57c-5,0-9.06,4.07-9.06,9.06v17.18Z"/>
  <rect class="st16" x="665.01" y="353.27" width=".75" height="40.1"/>
  <g>
    <path class="st9" d="M862.81,247.62c-.38,7.51-1.15,14.9-2.23,22.11-5.36,36.25-18.36,68.21-29.56,90.49-9.14,18.17-17.09,29.92-18.74,32.31-.22.31-.33.45-.33.45h-.13l-51.52.47c-.24-.15-.47-.31-.71-.47-8.81-5.86-16.77-13.61-23.3-22.96-6.19-8.84-11.05-22.52-5.02-31.54,4-5.99,11.04-6.97,17.35-7.08,2.67-.04,5.36-.01,8.03.1,7.56.31,15.11,1.23,22.57,2.77,0,0,.02,0,.04.01,2.76.57,5.5,1.21,8.23,1.95-.22-.22-.45-.45-.68-.7-.31-.34-.62-.71-.94-1.11-15.16-18.77-34.89-93.24-6.84-99.07,5.81-1.21,12.21,1.38,17.67,6.01,6.06,5.14,10.93,12.81,12.54,20.61.04-.64.12-1.28.21-1.89,0,0,0-.01,0-.01,1.45-9.12,8.84-16.4,16.43-15.76,8.1.71,14.98,10.36,14.48,20.33,1.93-4.32,4.57-8.29,7.73-11.31.02-.02.05-.04.07-.06,1.61-1.54,3.35-2.82,5.2-3.78,1.68-.87,3.44-1.48,5.27-1.77,1.47-.23,2.87-.26,4.18-.1Z"/>
    <path class="st16" d="M819.64,346.48c-23.1-13.38-62.61-14.26-63.01-14.27v-.92c.41,0,40.11.89,63.38,14.37l-.37.82Z"/>
    <path class="st16" d="M836.37,294.3h-.81c0-.37.65-35.66,17.71-45.04l.35.83c-16.61,9.13-17.24,43.86-17.25,44.21Z"/>
    <path class="st16" d="M818.97,309.39c-4.7-55.58-22.32-67.47-22.5-67.58l.4-.81c.74.47,18.17,12.15,22.91,68.3l-.81.09Z"/>
    <path class="st16" d="M839.5,306.06l-.81-.02c.02-1.16.67-28.52,6.35-37.71l.67.53c-5.54,8.96-6.19,36.92-6.2,37.2Z"/>
    <path class="st16" d="M795.38,342.12c-25.62-7.24-48.33-4.79-48.56-4.76l-.08-.92c.23-.03,23.07-2.49,48.83,4.79l-.2.9Z"/>
    <path class="st16" d="M764.26,390.57c-11.03-5.13-21.27-19.83-21.38-19.97l.64-.57c.1.15,10.22,14.65,21.05,19.69l-.31.85Z"/>
  </g>
  <path class="st16" d="M536.75,304.92c0-1.42-.02-34.96,15.13-39.95l.23.71c-14.64,4.83-14.62,38.89-14.62,39.23h-.75Z"/>
  <path class="st16" d="M557.9,337.5l-.74-.14c2.73-14.63,14.78-61.38,33.63-83.59l.57.48c-18.75,22.09-30.74,68.67-33.47,83.25Z"/>
  <path class="st16" d="M666.36,308l-.73-.15c.22-1.1,5.52-27.05,10.62-34.19l.61.44c-5,7-10.44,33.63-10.49,33.9Z"/>
  <path class="st16" d="M539.11,323.57c-.5-25.61-10.21-39.14-10.31-39.28l.6-.44c.1.13,9.95,13.84,10.46,39.7l-.75.02Z"/>
  <path class="st16" d="M551.43,356.93h-.75c0-.21.09-21.41,7.68-42.34l.71.26c-7.55,20.8-7.64,41.88-7.64,42.09Z"/>
  <path class="st16" d="M470.96,366.72c-6.5-6.84-6.24-18.83-6.23-19.33l.75.02c0,.12-.26,12.18,6.02,18.8l-.54.52Z"/>
  <path class="st16" d="M521.56,358.66l-.75-.06c.04-.47,3.79-47.24.51-73.46l.74-.09c3.29,26.29-.47,73.14-.51,73.61Z"/>
  <path class="st16" d="M620.25,223.69c-14.27,0-21.65-4.94-21.74-5l.43-.62c.12.09,12.78,8.52,37.15,3.01l.17.73c-6.04,1.37-11.38,1.88-16,1.88Z"/>
  <path class="st16" d="M601.98,186.79l-.74-.15c.11-.57,2.85-14,11.22-19.64l.42.62c-8.11,5.46-10.88,19.03-10.91,19.17Z"/>
</svg>